<?xml version="1.0" standalone="no"?>
<!DOCTYPE svg PUBLIC "-//W3C//DTD SVG 20010904//EN"
 "http://www.w3.org/TR/2001/REC-SVG-20010904/DTD/svg10.dtd">
<svg version="1.0" xmlns="http://www.w3.org/2000/svg"
 width="748.000000pt" height="664.000000pt" viewBox="0 0 748.000000 664.000000"
 preserveAspectRatio="xMidYMid meet">

<g transform="translate(0.000000,664.000000) scale(0.100000,-0.100000)"
fill="#000000" stroke="none">
<path d="M3532 6320 l-64 -5 -50 -115 c-47 -111 -132 -297 -243 -540 -29 -63
-63 -137 -75 -163 -12 -27 -82 -182 -157 -345 -74 -164 -189 -416 -255 -562
-66 -146 -133 -294 -150 -330 -86 -184 -388 -843 -440 -960 -34 -74 -65 -141
-71 -148 -21 -26 3 -22 54 10 127 80 348 164 544 207 153 34 145 30 170 91 12
30 41 94 64 142 22 48 41 89 41 91 0 3 30 67 66 143 99 207 129 273 209 454
40 91 99 219 129 285 73 154 66 139 132 290 76 175 122 265 135 265 6 0 13
-10 16 -21 4 -12 26 -63 51 -113 24 -50 79 -170 122 -266 43 -96 94 -209 113
-250 19 -41 52 -113 72 -160 62 -141 140 -319 189 -427 25 -57 66 -147 90
-200 24 -54 59 -132 78 -173 19 -42 38 -85 42 -98 7 -21 12 -22 124 -22 227
-1 385 -26 597 -96 127 -42 347 -140 428 -191 34 -21 37 -22 37 -5 0 10 -4 22
-8 28 -5 5 -17 29 -26 54 -10 25 -35 81 -56 125 -48 101 -136 293 -188 410
-22 50 -57 126 -77 170 -21 44 -65 143 -100 220 -70 157 -288 637 -330 730
-30 64 -63 138 -374 830 -240 536 -282 626 -295 643 -8 11 -57 13 -246 10
-129 -1 -264 -5 -298 -8z"/>
<path d="M2795 3106 c-275 -45 -558 -182 -1045 -506 -213 -141 -369 -232 -492
-285 -168 -72 -207 -80 -373 -80 -135 1 -143 2 -220 33 -115 47 -182 97 -232
171 -58 85 -76 152 -71 260 3 71 10 99 36 155 18 37 32 73 32 78 0 15 -56 -24
-112 -78 -112 -109 -150 -195 -156 -359 -3 -88 0 -127 17 -192 65 -261 242
-466 517 -601 127 -61 240 -99 429 -142 386 -88 795 -78 1240 30 465 113 963
350 1270 605 43 36 83 65 89 65 6 -1 33 -21 60 -45 58 -52 267 -193 381 -257
172 -97 215 -118 355 -178 314 -135 564 -207 895 -257 150 -22 594 -25 720 -4
355 58 612 146 779 265 124 89 246 227 307 348 43 85 57 133 71 240 21 167
-12 320 -90 423 -35 46 -146 145 -163 145 -5 0 2 -21 13 -47 87 -198 51 -407
-92 -537 -129 -116 -357 -157 -574 -101 -170 43 -331 126 -661 341 -401 261
-640 389 -849 455 -161 51 -254 68 -379 69 -267 1 -480 -77 -694 -251 -39 -33
-75 -59 -80 -59 -5 0 -22 14 -39 31 -94 99 -267 199 -419 244 -75 22 -114 27
-240 31 -95 2 -179 -1 -230 -10z"/>
<path d="M3655 1639 c-170 -172 -383 -220 -573 -127 l-62 31 -86 -44 c-82 -42
-85 -45 -79 -73 10 -55 145 -311 212 -405 260 -362 552 -508 813 -406 231 90
454 314 610 609 58 111 105 235 94 246 -5 4 -27 13 -49 20 -22 7 -53 21 -70
31 -40 25 -52 24 -121 -10 -86 -43 -159 -54 -247 -37 -128 25 -216 71 -322
168 -29 26 -57 48 -62 48 -5 0 -31 -23 -58 -51z"/>
<path d="M6319 1296 c-2 -2 -49 -13 -104 -25 -205 -43 -475 -52 -750 -26 -88
9 -168 18 -177 21 -10 3 -18 2 -18 -3 0 -22 33 -108 73 -193 25 -52 80 -174
122 -270 42 -96 81 -179 86 -185 11 -11 1097 -16 1104 -5 2 4 -6 26 -18 51
-24 49 -45 93 -193 414 -92 200 -112 234 -125 221z"/>
<path d="M1116 1243 c-13 -27 -36 -76 -50 -110 -28 -67 -79 -177 -179 -386
-40 -84 -57 -131 -51 -137 7 -7 130 -8 354 -3 l344 8 42 95 c44 97 59 131 114
255 17 39 42 93 55 120 30 64 65 146 65 153 0 3 -44 2 -97 -2 -124 -8 -330 7
-453 33 -52 12 -101 21 -107 21 -7 0 -23 -21 -37 -47z"/>
</g>
</svg>
